<mxfile host="app.diagrams.net" modified="2024-03-17T20:15:39.294Z" agent="Mozilla/5.0 (Windows NT 10.0; Win64; x64) AppleWebKit/537.36 (KHTML, like Gecko) Chrome/122.0.0.0 Safari/537.36" etag="CZ1okC72vVd1uSKyeV19" version="24.0.7" type="device" pages="4">
  <diagram id="bYj_1N88fjFMMEoRbErq" name="iWebcamProtectApi">
    <mxGraphModel dx="2085" dy="614" grid="1" gridSize="10" guides="1" tooltips="1" connect="1" arrows="1" fold="1" page="1" pageScale="1" pageWidth="850" pageHeight="1100" math="0" shadow="0">
      <root>
        <mxCell id="0" />
        <mxCell id="1" parent="0" />
        <mxCell id="gYndZlmL9QxhA64SFdfO-81" value="&lt;div&gt;iGardenConnectApi&lt;/div&gt;" style="shape=umlFrame;whiteSpace=wrap;html=1;width=130;height=30;swimlaneFillColor=#ffffff;" parent="1" vertex="1">
          <mxGeometry x="-670" y="190" width="1200" height="584.73" as="geometry" />
        </mxCell>
        <mxCell id="gYndZlmL9QxhA64SFdfO-82" value="&lt;div&gt;API&lt;/div&gt;" style="shape=umlFrame;whiteSpace=wrap;html=1;fontStyle=1" parent="1" vertex="1">
          <mxGeometry x="-640" y="250" width="260" height="181.01" as="geometry" />
        </mxCell>
        <mxCell id="gYndZlmL9QxhA64SFdfO-83" value="DTO" style="shape=umlFrame;whiteSpace=wrap;html=1;fontStyle=1" parent="1" vertex="1">
          <mxGeometry x="-260" y="549.7663636363636" width="150" height="97.45454545454547" as="geometry" />
        </mxCell>
        <mxCell id="gYndZlmL9QxhA64SFdfO-84" value="" style="endArrow=open;endFill=1;endSize=12;html=1;" parent="1" source="gYndZlmL9QxhA64SFdfO-107" target="gYndZlmL9QxhA64SFdfO-112" edge="1">
          <mxGeometry width="160" relative="1" as="geometry">
            <mxPoint x="50" y="-356.2663636363636" as="sourcePoint" />
            <mxPoint x="210" y="-356.2663636363636" as="targetPoint" />
          </mxGeometry>
        </mxCell>
        <mxCell id="gYndZlmL9QxhA64SFdfO-85" value="" style="endArrow=open;endFill=1;endSize=12;html=1;" parent="1" source="gYndZlmL9QxhA64SFdfO-107" target="gYndZlmL9QxhA64SFdfO-83" edge="1">
          <mxGeometry width="160" relative="1" as="geometry">
            <mxPoint x="178.33333333333326" y="-478.08454545454543" as="sourcePoint" />
            <mxPoint x="221.66666666666674" y="-636.4481818181819" as="targetPoint" />
          </mxGeometry>
        </mxCell>
        <mxCell id="gYndZlmL9QxhA64SFdfO-86" value="" style="endArrow=open;endFill=1;endSize=12;html=1;" parent="1" source="gYndZlmL9QxhA64SFdfO-82" target="gYndZlmL9QxhA64SFdfO-83" edge="1">
          <mxGeometry width="160" relative="1" as="geometry">
            <mxPoint x="316.7241379310344" y="-392.8118181818182" as="sourcePoint" />
            <mxPoint x="483.2758620689656" y="-648.63" as="targetPoint" />
          </mxGeometry>
        </mxCell>
        <mxCell id="gYndZlmL9QxhA64SFdfO-87" value="" style="endArrow=open;endFill=1;endSize=12;html=1;" parent="1" source="gYndZlmL9QxhA64SFdfO-82" target="gYndZlmL9QxhA64SFdfO-107" edge="1">
          <mxGeometry width="160" relative="1" as="geometry">
            <mxPoint x="151.04999999999995" y="-666.854" as="sourcePoint" />
            <mxPoint x="208.85805763073654" y="-624.2663636363636" as="targetPoint" />
          </mxGeometry>
        </mxCell>
        <mxCell id="gYndZlmL9QxhA64SFdfO-88" value="Controllers" style="shape=umlFrame;whiteSpace=wrap;html=1;width=80;height=22;" parent="1" vertex="1">
          <mxGeometry x="-572.5" y="308.58545454545447" width="150" height="104.15454545454546" as="geometry" />
        </mxCell>
        <mxCell id="gYndZlmL9QxhA64SFdfO-89" value="GardenDTO&#xa;" style="swimlane;fontStyle=1;align=center;verticalAlign=top;childLayout=stackLayout;horizontal=1;startSize=26;horizontalStack=0;resizeParent=1;resizeParentMax=0;resizeLast=0;collapsible=1;marginBottom=0;" parent="1" vertex="1">
          <mxGeometry x="-223" y="595.4481818181819" width="100" height="35.74545454545455" as="geometry">
            <mxRectangle x="560" y="40" width="70" height="26" as="alternateBounds" />
          </mxGeometry>
        </mxCell>
        <mxCell id="gYndZlmL9QxhA64SFdfO-90" value="" style="line;strokeWidth=1;fillColor=none;align=left;verticalAlign=middle;spacingTop=-1;spacingLeft=3;spacingRight=3;rotatable=0;labelPosition=right;points=[];portConstraint=eastwest;" parent="gYndZlmL9QxhA64SFdfO-89" vertex="1">
          <mxGeometry y="26" width="100" height="9.745454545454546" as="geometry" />
        </mxCell>
        <mxCell id="gYndZlmL9QxhA64SFdfO-91" value="GardenController&#xa;" style="swimlane;fontStyle=1;align=center;verticalAlign=top;childLayout=stackLayout;horizontal=1;startSize=26;horizontalStack=0;resizeParent=1;resizeParentMax=0;resizeLast=0;collapsible=1;marginBottom=0;" parent="1" vertex="1">
          <mxGeometry x="-552.5" y="359.1400000000001" width="120" height="35.74545454545455" as="geometry">
            <mxRectangle x="560" y="40" width="70" height="26" as="alternateBounds" />
          </mxGeometry>
        </mxCell>
        <mxCell id="gYndZlmL9QxhA64SFdfO-92" value="" style="line;strokeWidth=1;fillColor=none;align=left;verticalAlign=middle;spacingTop=-1;spacingLeft=3;spacingRight=3;rotatable=0;labelPosition=right;points=[];portConstraint=eastwest;" parent="gYndZlmL9QxhA64SFdfO-91" vertex="1">
          <mxGeometry y="26" width="120" height="9.745454545454546" as="geometry" />
        </mxCell>
        <mxCell id="gYndZlmL9QxhA64SFdfO-93" style="edgeStyle=none;orthogonalLoop=1;jettySize=auto;html=1;endArrow=open;endFill=1;endSize=12;" parent="1" source="gYndZlmL9QxhA64SFdfO-82" target="gYndZlmL9QxhA64SFdfO-95" edge="1">
          <mxGeometry relative="1" as="geometry" />
        </mxCell>
        <mxCell id="gYndZlmL9QxhA64SFdfO-94" value="" style="group" parent="1" vertex="1" connectable="0">
          <mxGeometry x="-655" y="519.0972727272729" width="315" height="243.63636363636365" as="geometry" />
        </mxCell>
        <mxCell id="gYndZlmL9QxhA64SFdfO-95" value="VM" style="shape=umlFrame;whiteSpace=wrap;html=1;width=80;height=22;fontStyle=1" parent="gYndZlmL9QxhA64SFdfO-94" vertex="1">
          <mxGeometry width="315" height="243.63636363636365" as="geometry" />
        </mxCell>
        <mxCell id="gYndZlmL9QxhA64SFdfO-96" value="GardenVM" style="swimlane;fontStyle=1;align=center;verticalAlign=top;childLayout=stackLayout;horizontal=1;startSize=26;horizontalStack=0;resizeParent=1;resizeParentMax=0;resizeLast=0;collapsible=1;marginBottom=0;" parent="gYndZlmL9QxhA64SFdfO-94" vertex="1">
          <mxGeometry x="97.5" y="21.92727272727273" width="120" height="35.74545454545455" as="geometry">
            <mxRectangle x="560" y="40" width="70" height="26" as="alternateBounds" />
          </mxGeometry>
        </mxCell>
        <mxCell id="gYndZlmL9QxhA64SFdfO-97" value="" style="line;strokeWidth=1;fillColor=none;align=left;verticalAlign=middle;spacingTop=-1;spacingLeft=3;spacingRight=3;rotatable=0;labelPosition=right;points=[];portConstraint=eastwest;" parent="gYndZlmL9QxhA64SFdfO-96" vertex="1">
          <mxGeometry y="26" width="120" height="9.745454545454546" as="geometry" />
        </mxCell>
        <mxCell id="gYndZlmL9QxhA64SFdfO-98" value="" style="group" parent="gYndZlmL9QxhA64SFdfO-94" vertex="1" connectable="0">
          <mxGeometry x="15" y="82.22727272727273" width="285" height="149.83636363636364" as="geometry" />
        </mxCell>
        <mxCell id="gYndZlmL9QxhA64SFdfO-99" value="Extensions" style="shape=umlFrame;whiteSpace=wrap;html=1;width=80;height=22;" parent="gYndZlmL9QxhA64SFdfO-98" vertex="1">
          <mxGeometry width="285" height="149.83636363636364" as="geometry" />
        </mxCell>
        <mxCell id="gYndZlmL9QxhA64SFdfO-100" value="GardenVMExtension" style="swimlane;fontStyle=1;align=center;verticalAlign=top;childLayout=stackLayout;horizontal=1;startSize=26;horizontalStack=0;resizeParent=1;resizeParentMax=0;resizeLast=0;collapsible=1;marginBottom=0;" parent="gYndZlmL9QxhA64SFdfO-98" vertex="1">
          <mxGeometry x="17.5" y="36.54545454545455" width="250" height="99.0909090909091" as="geometry">
            <mxRectangle x="560" y="40" width="70" height="26" as="alternateBounds" />
          </mxGeometry>
        </mxCell>
        <mxCell id="gYndZlmL9QxhA64SFdfO-101" value="+ ToVM(GardenDTO dto): GardenVM" style="text;strokeColor=none;fillColor=none;align=left;verticalAlign=top;spacingLeft=4;spacingRight=4;overflow=hidden;rotatable=0;points=[[0,0.5],[1,0.5]];portConstraint=eastwest;" parent="gYndZlmL9QxhA64SFdfO-100" vertex="1">
          <mxGeometry y="26" width="250" height="31.672727272727276" as="geometry" />
        </mxCell>
        <mxCell id="gYndZlmL9QxhA64SFdfO-102" value="+ ToDTO(GardenVM vm): GardenDTO" style="text;strokeColor=none;fillColor=none;align=left;verticalAlign=top;spacingLeft=4;spacingRight=4;overflow=hidden;rotatable=0;points=[[0,0.5],[1,0.5]];portConstraint=eastwest;" parent="gYndZlmL9QxhA64SFdfO-100" vertex="1">
          <mxGeometry y="57.67272727272727" width="250" height="31.672727272727276" as="geometry" />
        </mxCell>
        <mxCell id="gYndZlmL9QxhA64SFdfO-103" value="" style="line;strokeWidth=1;fillColor=none;align=left;verticalAlign=middle;spacingTop=-1;spacingLeft=3;spacingRight=3;rotatable=0;labelPosition=right;points=[];portConstraint=eastwest;" parent="gYndZlmL9QxhA64SFdfO-100" vertex="1">
          <mxGeometry y="89.34545454545454" width="250" height="9.745454545454546" as="geometry" />
        </mxCell>
        <mxCell id="gYndZlmL9QxhA64SFdfO-104" value="&lt;span style=&quot;color: rgba(0 , 0 , 0 , 0) ; font-family: monospace ; font-size: 0px ; background-color: rgb(248 , 249 , 250)&quot;&gt;%3CmxGraphModel%3E%3Croot%3E%3CmxCell%20id%3D%220%22%2F%3E%3CmxCell%20id%3D%221%22%20parent%3D%220%22%2F%3E%3CmxCell%20id%3D%222%22%20value%3D%22GET%3A%20%2Fapi%2Fbrand%26lt%3Bbr%26gt%3BJSON%22%20style%3D%22edgeLabel%3Bhtml%3D1%3Balign%3Dcenter%3BverticalAlign%3Dmiddle%3Bresizable%3D0%3Bpoints%3D%5B%5D%3B%22%20vertex%3D%221%22%20connectable%3D%220%22%20parent%3D%221%22%3E%3CmxGeometry%20x%3D%22-259.90304008366843%22%20y%3D%22770%22%20as%3D%22geometry%22%2F%3E%3C%2FmxCell%3E%3C%2Froot%3E%3C%2FmxGraphModel%3E&lt;/span&gt;" style="edgeLabel;html=1;align=center;verticalAlign=middle;resizable=0;points=[];" parent="1" vertex="1" connectable="0">
          <mxGeometry x="-416.3048880493129" y="586.4931314752205" as="geometry" />
        </mxCell>
        <mxCell id="gYndZlmL9QxhA64SFdfO-105" value="&lt;span style=&quot;color: rgba(0 , 0 , 0 , 0) ; font-family: monospace ; font-size: 0px ; background-color: rgb(248 , 249 , 250)&quot;&gt;%3CmxGraphModel%3E%3Croot%3E%3CmxCell%20id%3D%220%22%2F%3E%3CmxCell%20id%3D%221%22%20parent%3D%220%22%2F%3E%3CmxCell%20id%3D%222%22%20value%3D%22GET%3A%20%2Fapi%2Fbrand%26lt%3Bbr%26gt%3BJSON%22%20style%3D%22edgeLabel%3Bhtml%3D1%3Balign%3Dcenter%3BverticalAlign%3Dmiddle%3Bresizable%3D0%3Bpoints%3D%5B%5D%3B%22%20vertex%3D%221%22%20connectable%3D%220%22%20parent%3D%221%22%3E%3CmxGeometry%20x%3D%22-259.90304008366843%22%20y%3D%22770%22%20as%3D%22geometry%22%2F%3E%3C%2FmxCell%3E%3C%2Froot%3E%3C%2FmxGraphModel%3E&lt;/span&gt;" style="edgeLabel;html=1;align=center;verticalAlign=middle;resizable=0;points=[];" parent="1" vertex="1" connectable="0">
          <mxGeometry x="-412.96734713916885" y="595.9726262229965" as="geometry" />
        </mxCell>
        <mxCell id="gYndZlmL9QxhA64SFdfO-106" value="" style="group" parent="1" vertex="1" connectable="0">
          <mxGeometry x="-260" y="300.0627272727272" width="150" height="97.45454545454547" as="geometry" />
        </mxCell>
        <mxCell id="gYndZlmL9QxhA64SFdfO-107" value="BL" style="shape=umlFrame;whiteSpace=wrap;html=1;fontStyle=1" parent="gYndZlmL9QxhA64SFdfO-106" vertex="1">
          <mxGeometry width="150" height="97.45454545454547" as="geometry" />
        </mxCell>
        <mxCell id="gYndZlmL9QxhA64SFdfO-108" value="GardenService&#xa;" style="swimlane;fontStyle=1;align=center;verticalAlign=top;childLayout=stackLayout;horizontal=1;startSize=26;horizontalStack=0;resizeParent=1;resizeParentMax=0;resizeLast=0;collapsible=1;marginBottom=0;" parent="gYndZlmL9QxhA64SFdfO-106" vertex="1">
          <mxGeometry x="17.5" y="48.727272727272734" width="115" height="35.74545454545455" as="geometry">
            <mxRectangle x="560" y="40" width="70" height="26" as="alternateBounds" />
          </mxGeometry>
        </mxCell>
        <mxCell id="gYndZlmL9QxhA64SFdfO-109" value="" style="line;strokeWidth=1;fillColor=none;align=left;verticalAlign=middle;spacingTop=-1;spacingLeft=3;spacingRight=3;rotatable=0;labelPosition=right;points=[];portConstraint=eastwest;" parent="gYndZlmL9QxhA64SFdfO-108" vertex="1">
          <mxGeometry y="26" width="115" height="9.745454545454546" as="geometry" />
        </mxCell>
        <mxCell id="gYndZlmL9QxhA64SFdfO-110" value="" style="endArrow=open;endFill=1;endSize=12;html=1;" parent="1" source="gYndZlmL9QxhA64SFdfO-112" target="gYndZlmL9QxhA64SFdfO-83" edge="1">
          <mxGeometry width="160" relative="1" as="geometry">
            <mxPoint x="699.1541379310345" y="-468.09181818181816" as="sourcePoint" />
            <mxPoint x="690.0014285714285" y="-413.2736363636361" as="targetPoint" />
          </mxGeometry>
        </mxCell>
        <mxCell id="gYndZlmL9QxhA64SFdfO-111" value="" style="group" parent="1" vertex="1" connectable="0">
          <mxGeometry x="132.43000000000006" y="199.9990909090909" width="330" height="322.8181818181818" as="geometry" />
        </mxCell>
        <mxCell id="gYndZlmL9QxhA64SFdfO-112" value="DAL" style="shape=umlFrame;whiteSpace=wrap;html=1;fontStyle=1" parent="gYndZlmL9QxhA64SFdfO-111" vertex="1">
          <mxGeometry width="330" height="304.54545454545456" as="geometry" />
        </mxCell>
        <mxCell id="gYndZlmL9QxhA64SFdfO-113" value="GardenRepository" style="swimlane;fontStyle=1;align=center;verticalAlign=top;childLayout=stackLayout;horizontal=1;startSize=26;horizontalStack=0;resizeParent=1;resizeParentMax=0;resizeLast=0;collapsible=1;marginBottom=0;" parent="gYndZlmL9QxhA64SFdfO-111" vertex="1">
          <mxGeometry x="22.5" y="48.727272727272734" width="285" height="99.0909090909091" as="geometry">
            <mxRectangle x="560" y="40" width="70" height="26" as="alternateBounds" />
          </mxGeometry>
        </mxCell>
        <mxCell id="gYndZlmL9QxhA64SFdfO-114" value="" style="line;strokeWidth=1;fillColor=none;align=left;verticalAlign=middle;spacingTop=-1;spacingLeft=3;spacingRight=3;rotatable=0;labelPosition=right;points=[];portConstraint=eastwest;" parent="gYndZlmL9QxhA64SFdfO-113" vertex="1">
          <mxGeometry y="26" width="285" height="9.745454545454546" as="geometry" />
        </mxCell>
        <mxCell id="gYndZlmL9QxhA64SFdfO-115" value="+ GetGardens(): List&lt;GardenDTO&gt;" style="text;strokeColor=none;fillColor=none;align=left;verticalAlign=top;spacingLeft=4;spacingRight=4;overflow=hidden;rotatable=0;points=[[0,0.5],[1,0.5]];portConstraint=eastwest;" parent="gYndZlmL9QxhA64SFdfO-113" vertex="1">
          <mxGeometry y="35.74545454545455" width="285" height="31.672727272727276" as="geometry" />
        </mxCell>
        <mxCell id="gYndZlmL9QxhA64SFdfO-116" value="+ GetGardenByID(int ID): GardenDTO" style="text;strokeColor=none;fillColor=none;align=left;verticalAlign=top;spacingLeft=4;spacingRight=4;overflow=hidden;rotatable=0;points=[[0,0.5],[1,0.5]];portConstraint=eastwest;" parent="gYndZlmL9QxhA64SFdfO-113" vertex="1">
          <mxGeometry y="67.41818181818182" width="285" height="31.672727272727276" as="geometry" />
        </mxCell>
        <mxCell id="gYndZlmL9QxhA64SFdfO-117" value="GardenExtension" style="swimlane;fontStyle=1;align=center;verticalAlign=top;childLayout=stackLayout;horizontal=1;startSize=26;horizontalStack=0;resizeParent=1;resizeParentMax=0;resizeLast=0;collapsible=1;marginBottom=0;" parent="gYndZlmL9QxhA64SFdfO-111" vertex="1">
          <mxGeometry x="25" y="179.6818181818182" width="280" height="99.0909090909091" as="geometry" />
        </mxCell>
        <mxCell id="gYndZlmL9QxhA64SFdfO-118" value="" style="line;strokeWidth=1;fillColor=none;align=left;verticalAlign=middle;spacingTop=-1;spacingLeft=3;spacingRight=3;rotatable=0;labelPosition=right;points=[];portConstraint=eastwest;" parent="gYndZlmL9QxhA64SFdfO-117" vertex="1">
          <mxGeometry y="26" width="280" height="9.745454545454546" as="geometry" />
        </mxCell>
        <mxCell id="gYndZlmL9QxhA64SFdfO-119" value="+ ToDTO(Garden entity): GardenDTO" style="text;strokeColor=none;fillColor=none;align=left;verticalAlign=top;spacingLeft=4;spacingRight=4;overflow=hidden;rotatable=0;points=[[0,0.5],[1,0.5]];portConstraint=eastwest;" parent="gYndZlmL9QxhA64SFdfO-117" vertex="1">
          <mxGeometry y="35.74545454545455" width="280" height="31.672727272727276" as="geometry" />
        </mxCell>
        <mxCell id="gYndZlmL9QxhA64SFdfO-120" value="+ ToEntity(GardenDTO dto): Garden" style="text;strokeColor=none;fillColor=none;align=left;verticalAlign=top;spacingLeft=4;spacingRight=4;overflow=hidden;rotatable=0;points=[[0,0.5],[1,0.5]];portConstraint=eastwest;" parent="gYndZlmL9QxhA64SFdfO-117" vertex="1">
          <mxGeometry y="67.41818181818182" width="280" height="31.672727272727276" as="geometry" />
        </mxCell>
        <mxCell id="gYndZlmL9QxhA64SFdfO-121" value="" style="group" parent="1" vertex="1" connectable="0">
          <mxGeometry x="590" y="287.27" width="120" height="130" as="geometry" />
        </mxCell>
        <mxCell id="gYndZlmL9QxhA64SFdfO-122" value="" style="shape=cylinder;whiteSpace=wrap;html=1;boundedLbl=1;backgroundOutline=1;" parent="gYndZlmL9QxhA64SFdfO-121" vertex="1">
          <mxGeometry width="120" height="130" as="geometry" />
        </mxCell>
        <mxCell id="gYndZlmL9QxhA64SFdfO-123" value="&lt;div&gt;BDD &lt;br&gt;&lt;/div&gt;&lt;div&gt;iGardenConnect&lt;/div&gt;&lt;div&gt;&lt;br&gt;&lt;/div&gt;" style="text;html=1;strokeColor=none;fillColor=none;align=center;verticalAlign=middle;whiteSpace=wrap;rounded=0;" parent="gYndZlmL9QxhA64SFdfO-121" vertex="1">
          <mxGeometry x="20" y="65" width="80" height="32.5" as="geometry" />
        </mxCell>
        <mxCell id="gYndZlmL9QxhA64SFdfO-124" style="edgeStyle=orthogonalEdgeStyle;rounded=1;orthogonalLoop=1;jettySize=auto;html=1;endFill=1;endArrow=open;endSize=12;" parent="1" source="gYndZlmL9QxhA64SFdfO-112" target="gYndZlmL9QxhA64SFdfO-122" edge="1">
          <mxGeometry relative="1" as="geometry" />
        </mxCell>
      </root>
    </mxGraphModel>
  </diagram>
  <diagram id="MGQO3yUlLLvTeL_5BSZN" name="MCD_iWebcamProtect">
    <mxGraphModel dx="1900" dy="1622" grid="1" gridSize="10" guides="1" tooltips="1" connect="1" arrows="1" fold="1" page="1" pageScale="1" pageWidth="850" pageHeight="1100" math="0" shadow="0">
      <root>
        <mxCell id="0" />
        <mxCell id="1" parent="0" />
        <mxCell id="zGlt62zitA7BbSgL8BIq-48" value="" style="shape=tableRow;horizontal=0;startSize=0;swimlaneHead=0;swimlaneBody=0;fillColor=none;collapsible=0;dropTarget=0;points=[[0,0.5],[1,0.5]];portConstraint=eastwest;top=0;left=0;right=0;bottom=0;" parent="1" vertex="1">
          <mxGeometry x="30" y="170" width="180" height="30" as="geometry" />
        </mxCell>
        <mxCell id="zGlt62zitA7BbSgL8BIq-49" value="" style="shape=partialRectangle;connectable=0;fillColor=none;top=0;left=0;bottom=0;right=0;editable=1;overflow=hidden;" parent="zGlt62zitA7BbSgL8BIq-48" vertex="1">
          <mxGeometry width="30" height="30" as="geometry">
            <mxRectangle width="30" height="30" as="alternateBounds" />
          </mxGeometry>
        </mxCell>
        <mxCell id="zGlt62zitA7BbSgL8BIq-50" value="Row 3" style="shape=partialRectangle;connectable=0;fillColor=none;top=0;left=0;bottom=0;right=0;align=left;spacingLeft=6;overflow=hidden;" parent="zGlt62zitA7BbSgL8BIq-48" vertex="1">
          <mxGeometry x="40" width="140" height="30" as="geometry">
            <mxRectangle width="150" height="30" as="alternateBounds" />
          </mxGeometry>
        </mxCell>
        <mxCell id="zGlt62zitA7BbSgL8BIq-51" value="User" style="swimlane;fontStyle=1;childLayout=stackLayout;horizontal=1;startSize=26;horizontalStack=0;resizeParent=1;resizeLast=0;collapsible=1;marginBottom=0;rounded=0;shadow=0;strokeWidth=1;" parent="1" vertex="1">
          <mxGeometry x="-450" y="-881" width="160" height="182" as="geometry">
            <mxRectangle x="-190" y="-440" width="160" height="26" as="alternateBounds" />
          </mxGeometry>
        </mxCell>
        <mxCell id="zGlt62zitA7BbSgL8BIq-52" value="idUser" style="shape=partialRectangle;top=0;left=0;right=0;bottom=1;align=left;verticalAlign=top;fillColor=none;spacingLeft=40;spacingRight=4;overflow=hidden;rotatable=0;points=[[0,0.5],[1,0.5]];portConstraint=eastwest;dropTarget=0;rounded=0;shadow=0;strokeWidth=1;fontStyle=4" parent="zGlt62zitA7BbSgL8BIq-51" vertex="1">
          <mxGeometry y="26" width="160" height="26" as="geometry" />
        </mxCell>
        <mxCell id="zGlt62zitA7BbSgL8BIq-53" value="PK" style="shape=partialRectangle;top=0;left=0;bottom=0;fillColor=none;align=left;verticalAlign=top;spacingLeft=4;spacingRight=4;overflow=hidden;rotatable=0;points=[];portConstraint=eastwest;part=1;" parent="zGlt62zitA7BbSgL8BIq-52" connectable="0" vertex="1">
          <mxGeometry width="36" height="26" as="geometry" />
        </mxCell>
        <mxCell id="zGlt62zitA7BbSgL8BIq-56" value="name" style="shape=partialRectangle;top=0;left=0;right=0;bottom=0;align=left;verticalAlign=top;fillColor=none;spacingLeft=40;spacingRight=4;overflow=hidden;rotatable=0;points=[[0,0.5],[1,0.5]];portConstraint=eastwest;dropTarget=0;rounded=0;shadow=0;strokeWidth=1;" parent="zGlt62zitA7BbSgL8BIq-51" vertex="1">
          <mxGeometry y="52" width="160" height="26" as="geometry" />
        </mxCell>
        <mxCell id="zGlt62zitA7BbSgL8BIq-57" value="" style="shape=partialRectangle;top=0;left=0;bottom=0;fillColor=none;align=left;verticalAlign=top;spacingLeft=4;spacingRight=4;overflow=hidden;rotatable=0;points=[];portConstraint=eastwest;part=1;" parent="zGlt62zitA7BbSgL8BIq-56" connectable="0" vertex="1">
          <mxGeometry width="36" height="26" as="geometry" />
        </mxCell>
        <mxCell id="zGlt62zitA7BbSgL8BIq-62" value="username" style="shape=partialRectangle;top=0;left=0;right=0;bottom=0;align=left;verticalAlign=top;fillColor=none;spacingLeft=40;spacingRight=4;overflow=hidden;rotatable=0;points=[[0,0.5],[1,0.5]];portConstraint=eastwest;dropTarget=0;rounded=0;shadow=0;strokeWidth=1;" parent="zGlt62zitA7BbSgL8BIq-51" vertex="1">
          <mxGeometry y="78" width="160" height="26" as="geometry" />
        </mxCell>
        <mxCell id="zGlt62zitA7BbSgL8BIq-63" value="" style="shape=partialRectangle;top=0;left=0;bottom=0;fillColor=none;align=left;verticalAlign=top;spacingLeft=4;spacingRight=4;overflow=hidden;rotatable=0;points=[];portConstraint=eastwest;part=1;" parent="zGlt62zitA7BbSgL8BIq-62" connectable="0" vertex="1">
          <mxGeometry width="36" height="26" as="geometry" />
        </mxCell>
        <mxCell id="YizHJlYB3pqWJqljeAp--24" value="password" style="shape=partialRectangle;top=0;left=0;right=0;bottom=0;align=left;verticalAlign=top;fillColor=none;spacingLeft=40;spacingRight=4;overflow=hidden;rotatable=0;points=[[0,0.5],[1,0.5]];portConstraint=eastwest;dropTarget=0;rounded=0;shadow=0;strokeWidth=1;" parent="zGlt62zitA7BbSgL8BIq-51" vertex="1">
          <mxGeometry y="104" width="160" height="26" as="geometry" />
        </mxCell>
        <mxCell id="YizHJlYB3pqWJqljeAp--25" value="" style="shape=partialRectangle;top=0;left=0;bottom=0;fillColor=none;align=left;verticalAlign=top;spacingLeft=4;spacingRight=4;overflow=hidden;rotatable=0;points=[];portConstraint=eastwest;part=1;" parent="YizHJlYB3pqWJqljeAp--24" connectable="0" vertex="1">
          <mxGeometry width="36" height="26" as="geometry" />
        </mxCell>
        <mxCell id="zGlt62zitA7BbSgL8BIq-58" value="login" style="shape=partialRectangle;top=0;left=0;right=0;bottom=0;align=left;verticalAlign=top;fillColor=none;spacingLeft=40;spacingRight=4;overflow=hidden;rotatable=0;points=[[0,0.5],[1,0.5]];portConstraint=eastwest;dropTarget=0;rounded=0;shadow=0;strokeWidth=1;" parent="zGlt62zitA7BbSgL8BIq-51" vertex="1">
          <mxGeometry y="130" width="160" height="26" as="geometry" />
        </mxCell>
        <mxCell id="zGlt62zitA7BbSgL8BIq-59" value="" style="shape=partialRectangle;top=0;left=0;bottom=0;fillColor=none;align=left;verticalAlign=top;spacingLeft=4;spacingRight=4;overflow=hidden;rotatable=0;points=[];portConstraint=eastwest;part=1;" parent="zGlt62zitA7BbSgL8BIq-58" connectable="0" vertex="1">
          <mxGeometry width="36" height="26" as="geometry" />
        </mxCell>
        <mxCell id="zGlt62zitA7BbSgL8BIq-144" value="role" style="shape=partialRectangle;top=0;left=0;right=0;bottom=0;align=left;verticalAlign=top;fillColor=none;spacingLeft=40;spacingRight=4;overflow=hidden;rotatable=0;points=[[0,0.5],[1,0.5]];portConstraint=eastwest;dropTarget=0;rounded=0;shadow=0;strokeWidth=1;" parent="zGlt62zitA7BbSgL8BIq-51" vertex="1">
          <mxGeometry y="156" width="160" height="26" as="geometry" />
        </mxCell>
        <mxCell id="zGlt62zitA7BbSgL8BIq-145" value="" style="shape=partialRectangle;top=0;left=0;bottom=0;fillColor=none;align=left;verticalAlign=top;spacingLeft=4;spacingRight=4;overflow=hidden;rotatable=0;points=[];portConstraint=eastwest;part=1;" parent="zGlt62zitA7BbSgL8BIq-144" connectable="0" vertex="1">
          <mxGeometry width="36" height="26" as="geometry" />
        </mxCell>
        <mxCell id="zGlt62zitA7BbSgL8BIq-95" value="Camera" style="swimlane;fontStyle=1;childLayout=stackLayout;horizontal=1;startSize=26;horizontalStack=0;resizeParent=1;resizeLast=0;collapsible=1;marginBottom=0;rounded=0;shadow=0;strokeWidth=1;" parent="1" vertex="1">
          <mxGeometry x="-130" y="-842" width="160" height="104" as="geometry">
            <mxRectangle x="-190" y="-440" width="160" height="26" as="alternateBounds" />
          </mxGeometry>
        </mxCell>
        <mxCell id="zGlt62zitA7BbSgL8BIq-96" value="idCamera" style="shape=partialRectangle;top=0;left=0;right=0;bottom=1;align=left;verticalAlign=top;fillColor=none;spacingLeft=40;spacingRight=4;overflow=hidden;rotatable=0;points=[[0,0.5],[1,0.5]];portConstraint=eastwest;dropTarget=0;rounded=0;shadow=0;strokeWidth=1;fontStyle=4" parent="zGlt62zitA7BbSgL8BIq-95" vertex="1">
          <mxGeometry y="26" width="160" height="26" as="geometry" />
        </mxCell>
        <mxCell id="zGlt62zitA7BbSgL8BIq-97" value="PK" style="shape=partialRectangle;top=0;left=0;bottom=0;fillColor=none;align=left;verticalAlign=top;spacingLeft=4;spacingRight=4;overflow=hidden;rotatable=0;points=[];portConstraint=eastwest;part=1;" parent="zGlt62zitA7BbSgL8BIq-96" connectable="0" vertex="1">
          <mxGeometry width="36" height="26" as="geometry" />
        </mxCell>
        <mxCell id="zGlt62zitA7BbSgL8BIq-98" value="name" style="shape=partialRectangle;top=0;left=0;right=0;bottom=0;align=left;verticalAlign=top;fillColor=none;spacingLeft=40;spacingRight=4;overflow=hidden;rotatable=0;points=[[0,0.5],[1,0.5]];portConstraint=eastwest;dropTarget=0;rounded=0;shadow=0;strokeWidth=1;" parent="zGlt62zitA7BbSgL8BIq-95" vertex="1">
          <mxGeometry y="52" width="160" height="26" as="geometry" />
        </mxCell>
        <mxCell id="zGlt62zitA7BbSgL8BIq-99" value="" style="shape=partialRectangle;top=0;left=0;bottom=0;fillColor=none;align=left;verticalAlign=top;spacingLeft=4;spacingRight=4;overflow=hidden;rotatable=0;points=[];portConstraint=eastwest;part=1;" parent="zGlt62zitA7BbSgL8BIq-98" connectable="0" vertex="1">
          <mxGeometry width="36" height="26" as="geometry" />
        </mxCell>
        <mxCell id="zGlt62zitA7BbSgL8BIq-102" value="state" style="shape=partialRectangle;top=0;left=0;right=0;bottom=0;align=left;verticalAlign=top;fillColor=none;spacingLeft=40;spacingRight=4;overflow=hidden;rotatable=0;points=[[0,0.5],[1,0.5]];portConstraint=eastwest;dropTarget=0;rounded=0;shadow=0;strokeWidth=1;" parent="zGlt62zitA7BbSgL8BIq-95" vertex="1">
          <mxGeometry y="78" width="160" height="26" as="geometry" />
        </mxCell>
        <mxCell id="zGlt62zitA7BbSgL8BIq-103" value="" style="shape=partialRectangle;top=0;left=0;bottom=0;fillColor=none;align=left;verticalAlign=top;spacingLeft=4;spacingRight=4;overflow=hidden;rotatable=0;points=[];portConstraint=eastwest;part=1;" parent="zGlt62zitA7BbSgL8BIq-102" connectable="0" vertex="1">
          <mxGeometry width="36" height="26" as="geometry" />
        </mxCell>
        <mxCell id="zGlt62zitA7BbSgL8BIq-114" value="*" style="text;html=1;align=center;verticalAlign=middle;resizable=0;points=[];autosize=1;strokeColor=none;fillColor=none;" parent="1" vertex="1">
          <mxGeometry x="-280" y="-818" width="30" height="30" as="geometry" />
        </mxCell>
        <mxCell id="zGlt62zitA7BbSgL8BIq-115" value="1" style="text;html=1;align=center;verticalAlign=middle;resizable=0;points=[];autosize=1;strokeColor=none;fillColor=none;" parent="1" vertex="1">
          <mxGeometry x="-160" y="-818" width="30" height="30" as="geometry" />
        </mxCell>
        <mxCell id="zGlt62zitA7BbSgL8BIq-116" value="DetectionEvent" style="swimlane;fontStyle=1;childLayout=stackLayout;horizontal=1;startSize=26;horizontalStack=0;resizeParent=1;resizeLast=0;collapsible=1;marginBottom=0;rounded=0;shadow=0;strokeWidth=1;" parent="1" vertex="1">
          <mxGeometry x="-130" y="-581" width="160" height="104" as="geometry">
            <mxRectangle x="-190" y="-440" width="160" height="26" as="alternateBounds" />
          </mxGeometry>
        </mxCell>
        <mxCell id="zGlt62zitA7BbSgL8BIq-117" value="idDetection" style="shape=partialRectangle;top=0;left=0;right=0;bottom=1;align=left;verticalAlign=top;fillColor=none;spacingLeft=40;spacingRight=4;overflow=hidden;rotatable=0;points=[[0,0.5],[1,0.5]];portConstraint=eastwest;dropTarget=0;rounded=0;shadow=0;strokeWidth=1;fontStyle=4" parent="zGlt62zitA7BbSgL8BIq-116" vertex="1">
          <mxGeometry y="26" width="160" height="26" as="geometry" />
        </mxCell>
        <mxCell id="zGlt62zitA7BbSgL8BIq-118" value="PK" style="shape=partialRectangle;top=0;left=0;bottom=0;fillColor=none;align=left;verticalAlign=top;spacingLeft=4;spacingRight=4;overflow=hidden;rotatable=0;points=[];portConstraint=eastwest;part=1;" parent="zGlt62zitA7BbSgL8BIq-117" connectable="0" vertex="1">
          <mxGeometry width="36" height="26" as="geometry" />
        </mxCell>
        <mxCell id="zGlt62zitA7BbSgL8BIq-119" value="date_time" style="shape=partialRectangle;top=0;left=0;right=0;bottom=0;align=left;verticalAlign=top;fillColor=none;spacingLeft=40;spacingRight=4;overflow=hidden;rotatable=0;points=[[0,0.5],[1,0.5]];portConstraint=eastwest;dropTarget=0;rounded=0;shadow=0;strokeWidth=1;" parent="zGlt62zitA7BbSgL8BIq-116" vertex="1">
          <mxGeometry y="52" width="160" height="26" as="geometry" />
        </mxCell>
        <mxCell id="zGlt62zitA7BbSgL8BIq-120" value="" style="shape=partialRectangle;top=0;left=0;bottom=0;fillColor=none;align=left;verticalAlign=top;spacingLeft=4;spacingRight=4;overflow=hidden;rotatable=0;points=[];portConstraint=eastwest;part=1;" parent="zGlt62zitA7BbSgL8BIq-119" connectable="0" vertex="1">
          <mxGeometry width="36" height="26" as="geometry" />
        </mxCell>
        <mxCell id="zGlt62zitA7BbSgL8BIq-121" value="captured_image" style="shape=partialRectangle;top=0;left=0;right=0;bottom=0;align=left;verticalAlign=top;fillColor=none;spacingLeft=40;spacingRight=4;overflow=hidden;rotatable=0;points=[[0,0.5],[1,0.5]];portConstraint=eastwest;dropTarget=0;rounded=0;shadow=0;strokeWidth=1;" parent="zGlt62zitA7BbSgL8BIq-116" vertex="1">
          <mxGeometry y="78" width="160" height="26" as="geometry" />
        </mxCell>
        <mxCell id="zGlt62zitA7BbSgL8BIq-122" value="" style="shape=partialRectangle;top=0;left=0;bottom=0;fillColor=none;align=left;verticalAlign=top;spacingLeft=4;spacingRight=4;overflow=hidden;rotatable=0;points=[];portConstraint=eastwest;part=1;" parent="zGlt62zitA7BbSgL8BIq-121" connectable="0" vertex="1">
          <mxGeometry width="36" height="26" as="geometry" />
        </mxCell>
        <mxCell id="zGlt62zitA7BbSgL8BIq-127" value="" style="endArrow=none;html=1;rounded=0;exitX=0.5;exitY=0;exitDx=0;exitDy=0;" parent="1" source="zGlt62zitA7BbSgL8BIq-116" target="zGlt62zitA7BbSgL8BIq-95" edge="1">
          <mxGeometry width="50" height="50" relative="1" as="geometry">
            <mxPoint x="-50" y="-620" as="sourcePoint" />
            <mxPoint x="-50" y="-712" as="targetPoint" />
          </mxGeometry>
        </mxCell>
        <mxCell id="zGlt62zitA7BbSgL8BIq-128" value="1" style="text;html=1;align=center;verticalAlign=middle;resizable=0;points=[];autosize=1;strokeColor=none;fillColor=none;" parent="1" vertex="1">
          <mxGeometry x="-55" y="-611" width="30" height="30" as="geometry" />
        </mxCell>
        <mxCell id="zGlt62zitA7BbSgL8BIq-129" value="*" style="text;html=1;align=center;verticalAlign=middle;resizable=0;points=[];autosize=1;strokeColor=none;fillColor=none;" parent="1" vertex="1">
          <mxGeometry x="-55" y="-729" width="30" height="30" as="geometry" />
        </mxCell>
        <mxCell id="YizHJlYB3pqWJqljeAp--5" value="EntityType" style="swimlane;fontStyle=1;childLayout=stackLayout;horizontal=1;startSize=26;horizontalStack=0;resizeParent=1;resizeLast=0;collapsible=1;marginBottom=0;rounded=0;shadow=0;strokeWidth=1;" parent="1" vertex="1">
          <mxGeometry x="210" y="-594" width="160" height="130" as="geometry">
            <mxRectangle x="-190" y="-440" width="160" height="26" as="alternateBounds" />
          </mxGeometry>
        </mxCell>
        <mxCell id="YizHJlYB3pqWJqljeAp--6" value="idEntity" style="shape=partialRectangle;top=0;left=0;right=0;bottom=1;align=left;verticalAlign=top;fillColor=none;spacingLeft=40;spacingRight=4;overflow=hidden;rotatable=0;points=[[0,0.5],[1,0.5]];portConstraint=eastwest;dropTarget=0;rounded=0;shadow=0;strokeWidth=1;fontStyle=4" parent="YizHJlYB3pqWJqljeAp--5" vertex="1">
          <mxGeometry y="26" width="160" height="26" as="geometry" />
        </mxCell>
        <mxCell id="YizHJlYB3pqWJqljeAp--7" value="PK" style="shape=partialRectangle;top=0;left=0;bottom=0;fillColor=none;align=left;verticalAlign=top;spacingLeft=4;spacingRight=4;overflow=hidden;rotatable=0;points=[];portConstraint=eastwest;part=1;" parent="YizHJlYB3pqWJqljeAp--6" connectable="0" vertex="1">
          <mxGeometry width="36" height="26" as="geometry" />
        </mxCell>
        <mxCell id="YizHJlYB3pqWJqljeAp--8" value="label" style="shape=partialRectangle;top=0;left=0;right=0;bottom=0;align=left;verticalAlign=top;fillColor=none;spacingLeft=40;spacingRight=4;overflow=hidden;rotatable=0;points=[[0,0.5],[1,0.5]];portConstraint=eastwest;dropTarget=0;rounded=0;shadow=0;strokeWidth=1;" parent="YizHJlYB3pqWJqljeAp--5" vertex="1">
          <mxGeometry y="52" width="160" height="26" as="geometry" />
        </mxCell>
        <mxCell id="YizHJlYB3pqWJqljeAp--9" value="" style="shape=partialRectangle;top=0;left=0;bottom=0;fillColor=none;align=left;verticalAlign=top;spacingLeft=4;spacingRight=4;overflow=hidden;rotatable=0;points=[];portConstraint=eastwest;part=1;" parent="YizHJlYB3pqWJqljeAp--8" connectable="0" vertex="1">
          <mxGeometry width="36" height="26" as="geometry" />
        </mxCell>
        <mxCell id="YizHJlYB3pqWJqljeAp--10" value="description" style="shape=partialRectangle;top=0;left=0;right=0;bottom=0;align=left;verticalAlign=top;fillColor=none;spacingLeft=40;spacingRight=4;overflow=hidden;rotatable=0;points=[[0,0.5],[1,0.5]];portConstraint=eastwest;dropTarget=0;rounded=0;shadow=0;strokeWidth=1;" parent="YizHJlYB3pqWJqljeAp--5" vertex="1">
          <mxGeometry y="78" width="160" height="26" as="geometry" />
        </mxCell>
        <mxCell id="YizHJlYB3pqWJqljeAp--11" value="" style="shape=partialRectangle;top=0;left=0;bottom=0;fillColor=none;align=left;verticalAlign=top;spacingLeft=4;spacingRight=4;overflow=hidden;rotatable=0;points=[];portConstraint=eastwest;part=1;" parent="YizHJlYB3pqWJqljeAp--10" connectable="0" vertex="1">
          <mxGeometry width="36" height="26" as="geometry" />
        </mxCell>
        <mxCell id="YizHJlYB3pqWJqljeAp--12" value="emergency_level" style="shape=partialRectangle;top=0;left=0;right=0;bottom=0;align=left;verticalAlign=top;fillColor=none;spacingLeft=40;spacingRight=4;overflow=hidden;rotatable=0;points=[[0,0.5],[1,0.5]];portConstraint=eastwest;dropTarget=0;rounded=0;shadow=0;strokeWidth=1;" parent="YizHJlYB3pqWJqljeAp--5" vertex="1">
          <mxGeometry y="104" width="160" height="26" as="geometry" />
        </mxCell>
        <mxCell id="YizHJlYB3pqWJqljeAp--13" value="" style="shape=partialRectangle;top=0;left=0;bottom=0;fillColor=none;align=left;verticalAlign=top;spacingLeft=4;spacingRight=4;overflow=hidden;rotatable=0;points=[];portConstraint=eastwest;part=1;" parent="YizHJlYB3pqWJqljeAp--12" connectable="0" vertex="1">
          <mxGeometry width="36" height="26" as="geometry" />
        </mxCell>
        <mxCell id="YizHJlYB3pqWJqljeAp--18" value="" style="endArrow=none;html=1;rounded=0;" parent="1" source="zGlt62zitA7BbSgL8BIq-116" target="YizHJlYB3pqWJqljeAp--5" edge="1">
          <mxGeometry width="50" height="50" relative="1" as="geometry">
            <mxPoint x="120" y="-611" as="sourcePoint" />
            <mxPoint x="170" y="-661" as="targetPoint" />
          </mxGeometry>
        </mxCell>
        <mxCell id="YizHJlYB3pqWJqljeAp--20" value="1" style="text;html=1;align=center;verticalAlign=middle;resizable=0;points=[];autosize=1;strokeColor=none;fillColor=none;" parent="1" vertex="1">
          <mxGeometry x="30" y="-560" width="30" height="30" as="geometry" />
        </mxCell>
        <mxCell id="YizHJlYB3pqWJqljeAp--22" value="*" style="text;html=1;align=center;verticalAlign=middle;resizable=0;points=[];autosize=1;strokeColor=none;fillColor=none;" parent="1" vertex="1">
          <mxGeometry x="180" y="-550" width="30" height="30" as="geometry" />
        </mxCell>
        <mxCell id="xqQjcwjsNCiNIU8wZGiJ-1" value="" style="endArrow=none;html=1;rounded=0;" parent="1" source="zGlt62zitA7BbSgL8BIq-51" target="zGlt62zitA7BbSgL8BIq-95" edge="1">
          <mxGeometry width="50" height="50" relative="1" as="geometry">
            <mxPoint x="40" y="-475" as="sourcePoint" />
            <mxPoint x="220" y="-475" as="targetPoint" />
          </mxGeometry>
        </mxCell>
      </root>
    </mxGraphModel>
  </diagram>
  <diagram name="MLD_iWebcamProtect" id="eGAsQc16RVNGy8QsxHsF">
    <mxGraphModel dx="1900" dy="1622" grid="1" gridSize="10" guides="1" tooltips="1" connect="1" arrows="1" fold="1" page="1" pageScale="1" pageWidth="850" pageHeight="1100" math="0" shadow="0">
      <root>
        <mxCell id="YmGmneDjq6B0QrRL0lID-0" />
        <mxCell id="YmGmneDjq6B0QrRL0lID-1" parent="YmGmneDjq6B0QrRL0lID-0" />
        <mxCell id="YmGmneDjq6B0QrRL0lID-2" value="" style="shape=tableRow;horizontal=0;startSize=0;swimlaneHead=0;swimlaneBody=0;fillColor=none;collapsible=0;dropTarget=0;points=[[0,0.5],[1,0.5]];portConstraint=eastwest;top=0;left=0;right=0;bottom=0;" parent="YmGmneDjq6B0QrRL0lID-1" vertex="1">
          <mxGeometry x="30" y="170" width="180" height="30" as="geometry" />
        </mxCell>
        <mxCell id="YmGmneDjq6B0QrRL0lID-3" value="" style="shape=partialRectangle;connectable=0;fillColor=none;top=0;left=0;bottom=0;right=0;editable=1;overflow=hidden;" parent="YmGmneDjq6B0QrRL0lID-2" vertex="1">
          <mxGeometry width="30" height="30" as="geometry">
            <mxRectangle width="30" height="30" as="alternateBounds" />
          </mxGeometry>
        </mxCell>
        <mxCell id="YmGmneDjq6B0QrRL0lID-4" value="Row 3" style="shape=partialRectangle;connectable=0;fillColor=none;top=0;left=0;bottom=0;right=0;align=left;spacingLeft=6;overflow=hidden;" parent="YmGmneDjq6B0QrRL0lID-2" vertex="1">
          <mxGeometry x="40" width="140" height="30" as="geometry">
            <mxRectangle width="150" height="30" as="alternateBounds" />
          </mxGeometry>
        </mxCell>
        <mxCell id="YmGmneDjq6B0QrRL0lID-5" value="User" style="swimlane;fontStyle=1;childLayout=stackLayout;horizontal=1;startSize=26;horizontalStack=0;resizeParent=1;resizeLast=0;collapsible=1;marginBottom=0;rounded=0;shadow=0;strokeWidth=1;" parent="YmGmneDjq6B0QrRL0lID-1" vertex="1">
          <mxGeometry x="-400" y="-870" width="160" height="182" as="geometry">
            <mxRectangle x="-190" y="-440" width="160" height="26" as="alternateBounds" />
          </mxGeometry>
        </mxCell>
        <mxCell id="YmGmneDjq6B0QrRL0lID-6" value="idUser" style="shape=partialRectangle;top=0;left=0;right=0;bottom=1;align=left;verticalAlign=top;fillColor=none;spacingLeft=40;spacingRight=4;overflow=hidden;rotatable=0;points=[[0,0.5],[1,0.5]];portConstraint=eastwest;dropTarget=0;rounded=0;shadow=0;strokeWidth=1;fontStyle=4" parent="YmGmneDjq6B0QrRL0lID-5" vertex="1">
          <mxGeometry y="26" width="160" height="26" as="geometry" />
        </mxCell>
        <mxCell id="YmGmneDjq6B0QrRL0lID-7" value="PK" style="shape=partialRectangle;top=0;left=0;bottom=0;fillColor=none;align=left;verticalAlign=top;spacingLeft=4;spacingRight=4;overflow=hidden;rotatable=0;points=[];portConstraint=eastwest;part=1;" parent="YmGmneDjq6B0QrRL0lID-6" connectable="0" vertex="1">
          <mxGeometry width="36" height="26" as="geometry" />
        </mxCell>
        <mxCell id="YmGmneDjq6B0QrRL0lID-8" value="name" style="shape=partialRectangle;top=0;left=0;right=0;bottom=0;align=left;verticalAlign=top;fillColor=none;spacingLeft=40;spacingRight=4;overflow=hidden;rotatable=0;points=[[0,0.5],[1,0.5]];portConstraint=eastwest;dropTarget=0;rounded=0;shadow=0;strokeWidth=1;" parent="YmGmneDjq6B0QrRL0lID-5" vertex="1">
          <mxGeometry y="52" width="160" height="26" as="geometry" />
        </mxCell>
        <mxCell id="YmGmneDjq6B0QrRL0lID-9" value="" style="shape=partialRectangle;top=0;left=0;bottom=0;fillColor=none;align=left;verticalAlign=top;spacingLeft=4;spacingRight=4;overflow=hidden;rotatable=0;points=[];portConstraint=eastwest;part=1;" parent="YmGmneDjq6B0QrRL0lID-8" connectable="0" vertex="1">
          <mxGeometry width="36" height="26" as="geometry" />
        </mxCell>
        <mxCell id="YmGmneDjq6B0QrRL0lID-10" value="username" style="shape=partialRectangle;top=0;left=0;right=0;bottom=0;align=left;verticalAlign=top;fillColor=none;spacingLeft=40;spacingRight=4;overflow=hidden;rotatable=0;points=[[0,0.5],[1,0.5]];portConstraint=eastwest;dropTarget=0;rounded=0;shadow=0;strokeWidth=1;" parent="YmGmneDjq6B0QrRL0lID-5" vertex="1">
          <mxGeometry y="78" width="160" height="26" as="geometry" />
        </mxCell>
        <mxCell id="YmGmneDjq6B0QrRL0lID-11" value="" style="shape=partialRectangle;top=0;left=0;bottom=0;fillColor=none;align=left;verticalAlign=top;spacingLeft=4;spacingRight=4;overflow=hidden;rotatable=0;points=[];portConstraint=eastwest;part=1;" parent="YmGmneDjq6B0QrRL0lID-10" connectable="0" vertex="1">
          <mxGeometry width="36" height="26" as="geometry" />
        </mxCell>
        <mxCell id="gcNMSOrmo4YRxYnMOIuT-0" value="password" style="shape=partialRectangle;top=0;left=0;right=0;bottom=0;align=left;verticalAlign=top;fillColor=none;spacingLeft=40;spacingRight=4;overflow=hidden;rotatable=0;points=[[0,0.5],[1,0.5]];portConstraint=eastwest;dropTarget=0;rounded=0;shadow=0;strokeWidth=1;" parent="YmGmneDjq6B0QrRL0lID-5" vertex="1">
          <mxGeometry y="104" width="160" height="26" as="geometry" />
        </mxCell>
        <mxCell id="gcNMSOrmo4YRxYnMOIuT-1" value="" style="shape=partialRectangle;top=0;left=0;bottom=0;fillColor=none;align=left;verticalAlign=top;spacingLeft=4;spacingRight=4;overflow=hidden;rotatable=0;points=[];portConstraint=eastwest;part=1;" parent="gcNMSOrmo4YRxYnMOIuT-0" connectable="0" vertex="1">
          <mxGeometry width="36" height="26" as="geometry" />
        </mxCell>
        <mxCell id="YmGmneDjq6B0QrRL0lID-12" value="login" style="shape=partialRectangle;top=0;left=0;right=0;bottom=0;align=left;verticalAlign=top;fillColor=none;spacingLeft=40;spacingRight=4;overflow=hidden;rotatable=0;points=[[0,0.5],[1,0.5]];portConstraint=eastwest;dropTarget=0;rounded=0;shadow=0;strokeWidth=1;" parent="YmGmneDjq6B0QrRL0lID-5" vertex="1">
          <mxGeometry y="130" width="160" height="26" as="geometry" />
        </mxCell>
        <mxCell id="YmGmneDjq6B0QrRL0lID-13" value="" style="shape=partialRectangle;top=0;left=0;bottom=0;fillColor=none;align=left;verticalAlign=top;spacingLeft=4;spacingRight=4;overflow=hidden;rotatable=0;points=[];portConstraint=eastwest;part=1;" parent="YmGmneDjq6B0QrRL0lID-12" connectable="0" vertex="1">
          <mxGeometry width="36" height="26" as="geometry" />
        </mxCell>
        <mxCell id="YmGmneDjq6B0QrRL0lID-14" value="role" style="shape=partialRectangle;top=0;left=0;right=0;bottom=0;align=left;verticalAlign=top;fillColor=none;spacingLeft=40;spacingRight=4;overflow=hidden;rotatable=0;points=[[0,0.5],[1,0.5]];portConstraint=eastwest;dropTarget=0;rounded=0;shadow=0;strokeWidth=1;" parent="YmGmneDjq6B0QrRL0lID-5" vertex="1">
          <mxGeometry y="156" width="160" height="26" as="geometry" />
        </mxCell>
        <mxCell id="YmGmneDjq6B0QrRL0lID-15" value="" style="shape=partialRectangle;top=0;left=0;bottom=0;fillColor=none;align=left;verticalAlign=top;spacingLeft=4;spacingRight=4;overflow=hidden;rotatable=0;points=[];portConstraint=eastwest;part=1;" parent="YmGmneDjq6B0QrRL0lID-14" connectable="0" vertex="1">
          <mxGeometry width="36" height="26" as="geometry" />
        </mxCell>
        <mxCell id="YmGmneDjq6B0QrRL0lID-16" value="Camera" style="swimlane;fontStyle=1;childLayout=stackLayout;horizontal=1;startSize=26;horizontalStack=0;resizeParent=1;resizeLast=0;collapsible=1;marginBottom=0;rounded=0;shadow=0;strokeWidth=1;" parent="YmGmneDjq6B0QrRL0lID-1" vertex="1">
          <mxGeometry x="-130" y="-844" width="160" height="130" as="geometry">
            <mxRectangle x="-190" y="-440" width="160" height="26" as="alternateBounds" />
          </mxGeometry>
        </mxCell>
        <mxCell id="YmGmneDjq6B0QrRL0lID-17" value="idCamera" style="shape=partialRectangle;top=0;left=0;right=0;bottom=1;align=left;verticalAlign=top;fillColor=none;spacingLeft=40;spacingRight=4;overflow=hidden;rotatable=0;points=[[0,0.5],[1,0.5]];portConstraint=eastwest;dropTarget=0;rounded=0;shadow=0;strokeWidth=1;fontStyle=4" parent="YmGmneDjq6B0QrRL0lID-16" vertex="1">
          <mxGeometry y="26" width="160" height="26" as="geometry" />
        </mxCell>
        <mxCell id="YmGmneDjq6B0QrRL0lID-18" value="PK" style="shape=partialRectangle;top=0;left=0;bottom=0;fillColor=none;align=left;verticalAlign=top;spacingLeft=4;spacingRight=4;overflow=hidden;rotatable=0;points=[];portConstraint=eastwest;part=1;" parent="YmGmneDjq6B0QrRL0lID-17" connectable="0" vertex="1">
          <mxGeometry width="36" height="26" as="geometry" />
        </mxCell>
        <mxCell id="mYhw9QaZtNj51-LAyf85-0" value="idUser" style="shape=partialRectangle;top=0;left=0;right=0;bottom=1;align=left;verticalAlign=top;fillColor=none;spacingLeft=40;spacingRight=4;overflow=hidden;rotatable=0;points=[[0,0.5],[1,0.5]];portConstraint=eastwest;dropTarget=0;rounded=0;shadow=0;strokeWidth=1;fontStyle=4" parent="YmGmneDjq6B0QrRL0lID-16" vertex="1">
          <mxGeometry y="52" width="160" height="26" as="geometry" />
        </mxCell>
        <mxCell id="mYhw9QaZtNj51-LAyf85-1" value="FK" style="shape=partialRectangle;top=0;left=0;bottom=0;fillColor=none;align=left;verticalAlign=top;spacingLeft=4;spacingRight=4;overflow=hidden;rotatable=0;points=[];portConstraint=eastwest;part=1;" parent="mYhw9QaZtNj51-LAyf85-0" connectable="0" vertex="1">
          <mxGeometry width="36" height="26" as="geometry" />
        </mxCell>
        <mxCell id="YmGmneDjq6B0QrRL0lID-19" value="name" style="shape=partialRectangle;top=0;left=0;right=0;bottom=0;align=left;verticalAlign=top;fillColor=none;spacingLeft=40;spacingRight=4;overflow=hidden;rotatable=0;points=[[0,0.5],[1,0.5]];portConstraint=eastwest;dropTarget=0;rounded=0;shadow=0;strokeWidth=1;" parent="YmGmneDjq6B0QrRL0lID-16" vertex="1">
          <mxGeometry y="78" width="160" height="26" as="geometry" />
        </mxCell>
        <mxCell id="YmGmneDjq6B0QrRL0lID-20" value="" style="shape=partialRectangle;top=0;left=0;bottom=0;fillColor=none;align=left;verticalAlign=top;spacingLeft=4;spacingRight=4;overflow=hidden;rotatable=0;points=[];portConstraint=eastwest;part=1;" parent="YmGmneDjq6B0QrRL0lID-19" connectable="0" vertex="1">
          <mxGeometry width="36" height="26" as="geometry" />
        </mxCell>
        <mxCell id="YmGmneDjq6B0QrRL0lID-25" value="state" style="shape=partialRectangle;top=0;left=0;right=0;bottom=0;align=left;verticalAlign=top;fillColor=none;spacingLeft=40;spacingRight=4;overflow=hidden;rotatable=0;points=[[0,0.5],[1,0.5]];portConstraint=eastwest;dropTarget=0;rounded=0;shadow=0;strokeWidth=1;" parent="YmGmneDjq6B0QrRL0lID-16" vertex="1">
          <mxGeometry y="104" width="160" height="26" as="geometry" />
        </mxCell>
        <mxCell id="YmGmneDjq6B0QrRL0lID-26" value="" style="shape=partialRectangle;top=0;left=0;bottom=0;fillColor=none;align=left;verticalAlign=top;spacingLeft=4;spacingRight=4;overflow=hidden;rotatable=0;points=[];portConstraint=eastwest;part=1;" parent="YmGmneDjq6B0QrRL0lID-25" connectable="0" vertex="1">
          <mxGeometry width="36" height="26" as="geometry" />
        </mxCell>
        <mxCell id="YmGmneDjq6B0QrRL0lID-30" value="DetectionEvent" style="swimlane;fontStyle=1;childLayout=stackLayout;horizontal=1;startSize=26;horizontalStack=0;resizeParent=1;resizeLast=0;collapsible=1;marginBottom=0;rounded=0;shadow=0;strokeWidth=1;" parent="YmGmneDjq6B0QrRL0lID-1" vertex="1">
          <mxGeometry x="-130" y="-610" width="160" height="156" as="geometry">
            <mxRectangle x="-190" y="-440" width="160" height="26" as="alternateBounds" />
          </mxGeometry>
        </mxCell>
        <mxCell id="YmGmneDjq6B0QrRL0lID-31" value="idDetection" style="shape=partialRectangle;top=0;left=0;right=0;bottom=1;align=left;verticalAlign=top;fillColor=none;spacingLeft=40;spacingRight=4;overflow=hidden;rotatable=0;points=[[0,0.5],[1,0.5]];portConstraint=eastwest;dropTarget=0;rounded=0;shadow=0;strokeWidth=1;fontStyle=4" parent="YmGmneDjq6B0QrRL0lID-30" vertex="1">
          <mxGeometry y="26" width="160" height="26" as="geometry" />
        </mxCell>
        <mxCell id="YmGmneDjq6B0QrRL0lID-32" value="PK" style="shape=partialRectangle;top=0;left=0;bottom=0;fillColor=none;align=left;verticalAlign=top;spacingLeft=4;spacingRight=4;overflow=hidden;rotatable=0;points=[];portConstraint=eastwest;part=1;" parent="YmGmneDjq6B0QrRL0lID-31" connectable="0" vertex="1">
          <mxGeometry width="36" height="26" as="geometry" />
        </mxCell>
        <mxCell id="gcNMSOrmo4YRxYnMOIuT-2" value="idCamera" style="shape=partialRectangle;top=0;left=0;right=0;bottom=1;align=left;verticalAlign=top;fillColor=none;spacingLeft=40;spacingRight=4;overflow=hidden;rotatable=0;points=[[0,0.5],[1,0.5]];portConstraint=eastwest;dropTarget=0;rounded=0;shadow=0;strokeWidth=1;fontStyle=4" parent="YmGmneDjq6B0QrRL0lID-30" vertex="1">
          <mxGeometry y="52" width="160" height="26" as="geometry" />
        </mxCell>
        <mxCell id="gcNMSOrmo4YRxYnMOIuT-3" value="FK" style="shape=partialRectangle;top=0;left=0;bottom=0;fillColor=none;align=left;verticalAlign=top;spacingLeft=4;spacingRight=4;overflow=hidden;rotatable=0;points=[];portConstraint=eastwest;part=1;" parent="gcNMSOrmo4YRxYnMOIuT-2" connectable="0" vertex="1">
          <mxGeometry width="36" height="26" as="geometry" />
        </mxCell>
        <mxCell id="wCppXlxxq_mCjIq-GbWD-0" value="idEntityType" style="shape=partialRectangle;top=0;left=0;right=0;bottom=1;align=left;verticalAlign=top;fillColor=none;spacingLeft=40;spacingRight=4;overflow=hidden;rotatable=0;points=[[0,0.5],[1,0.5]];portConstraint=eastwest;dropTarget=0;rounded=0;shadow=0;strokeWidth=1;fontStyle=4" parent="YmGmneDjq6B0QrRL0lID-30" vertex="1">
          <mxGeometry y="78" width="160" height="26" as="geometry" />
        </mxCell>
        <mxCell id="wCppXlxxq_mCjIq-GbWD-1" value="FK" style="shape=partialRectangle;top=0;left=0;bottom=0;fillColor=none;align=left;verticalAlign=top;spacingLeft=4;spacingRight=4;overflow=hidden;rotatable=0;points=[];portConstraint=eastwest;part=1;" parent="wCppXlxxq_mCjIq-GbWD-0" connectable="0" vertex="1">
          <mxGeometry width="36" height="26" as="geometry" />
        </mxCell>
        <mxCell id="YmGmneDjq6B0QrRL0lID-33" value="date_time" style="shape=partialRectangle;top=0;left=0;right=0;bottom=0;align=left;verticalAlign=top;fillColor=none;spacingLeft=40;spacingRight=4;overflow=hidden;rotatable=0;points=[[0,0.5],[1,0.5]];portConstraint=eastwest;dropTarget=0;rounded=0;shadow=0;strokeWidth=1;" parent="YmGmneDjq6B0QrRL0lID-30" vertex="1">
          <mxGeometry y="104" width="160" height="26" as="geometry" />
        </mxCell>
        <mxCell id="YmGmneDjq6B0QrRL0lID-34" value="" style="shape=partialRectangle;top=0;left=0;bottom=0;fillColor=none;align=left;verticalAlign=top;spacingLeft=4;spacingRight=4;overflow=hidden;rotatable=0;points=[];portConstraint=eastwest;part=1;" parent="YmGmneDjq6B0QrRL0lID-33" connectable="0" vertex="1">
          <mxGeometry width="36" height="26" as="geometry" />
        </mxCell>
        <mxCell id="YmGmneDjq6B0QrRL0lID-35" value="captured_image" style="shape=partialRectangle;top=0;left=0;right=0;bottom=0;align=left;verticalAlign=top;fillColor=none;spacingLeft=40;spacingRight=4;overflow=hidden;rotatable=0;points=[[0,0.5],[1,0.5]];portConstraint=eastwest;dropTarget=0;rounded=0;shadow=0;strokeWidth=1;" parent="YmGmneDjq6B0QrRL0lID-30" vertex="1">
          <mxGeometry y="130" width="160" height="26" as="geometry" />
        </mxCell>
        <mxCell id="YmGmneDjq6B0QrRL0lID-36" value="" style="shape=partialRectangle;top=0;left=0;bottom=0;fillColor=none;align=left;verticalAlign=top;spacingLeft=4;spacingRight=4;overflow=hidden;rotatable=0;points=[];portConstraint=eastwest;part=1;" parent="YmGmneDjq6B0QrRL0lID-35" connectable="0" vertex="1">
          <mxGeometry width="36" height="26" as="geometry" />
        </mxCell>
        <mxCell id="YmGmneDjq6B0QrRL0lID-44" value="EntityType" style="swimlane;fontStyle=1;childLayout=stackLayout;horizontal=1;startSize=26;horizontalStack=0;resizeParent=1;resizeLast=0;collapsible=1;marginBottom=0;rounded=0;shadow=0;strokeWidth=1;" parent="YmGmneDjq6B0QrRL0lID-1" vertex="1">
          <mxGeometry x="140" y="-597" width="160" height="130" as="geometry">
            <mxRectangle x="-190" y="-440" width="160" height="26" as="alternateBounds" />
          </mxGeometry>
        </mxCell>
        <mxCell id="B1OWahNinDSU7zjHo_K5-0" value="idEntity" style="shape=partialRectangle;top=0;left=0;right=0;bottom=1;align=left;verticalAlign=top;fillColor=none;spacingLeft=40;spacingRight=4;overflow=hidden;rotatable=0;points=[[0,0.5],[1,0.5]];portConstraint=eastwest;dropTarget=0;rounded=0;shadow=0;strokeWidth=1;fontStyle=4" parent="YmGmneDjq6B0QrRL0lID-44" vertex="1">
          <mxGeometry y="26" width="160" height="26" as="geometry" />
        </mxCell>
        <mxCell id="B1OWahNinDSU7zjHo_K5-1" value="PK" style="shape=partialRectangle;top=0;left=0;bottom=0;fillColor=none;align=left;verticalAlign=top;spacingLeft=4;spacingRight=4;overflow=hidden;rotatable=0;points=[];portConstraint=eastwest;part=1;" parent="B1OWahNinDSU7zjHo_K5-0" connectable="0" vertex="1">
          <mxGeometry width="36" height="26" as="geometry" />
        </mxCell>
        <mxCell id="YmGmneDjq6B0QrRL0lID-47" value="label" style="shape=partialRectangle;top=0;left=0;right=0;bottom=0;align=left;verticalAlign=top;fillColor=none;spacingLeft=40;spacingRight=4;overflow=hidden;rotatable=0;points=[[0,0.5],[1,0.5]];portConstraint=eastwest;dropTarget=0;rounded=0;shadow=0;strokeWidth=1;" parent="YmGmneDjq6B0QrRL0lID-44" vertex="1">
          <mxGeometry y="52" width="160" height="26" as="geometry" />
        </mxCell>
        <mxCell id="YmGmneDjq6B0QrRL0lID-48" value="" style="shape=partialRectangle;top=0;left=0;bottom=0;fillColor=none;align=left;verticalAlign=top;spacingLeft=4;spacingRight=4;overflow=hidden;rotatable=0;points=[];portConstraint=eastwest;part=1;" parent="YmGmneDjq6B0QrRL0lID-47" connectable="0" vertex="1">
          <mxGeometry width="36" height="26" as="geometry" />
        </mxCell>
        <mxCell id="YmGmneDjq6B0QrRL0lID-49" value="description" style="shape=partialRectangle;top=0;left=0;right=0;bottom=0;align=left;verticalAlign=top;fillColor=none;spacingLeft=40;spacingRight=4;overflow=hidden;rotatable=0;points=[[0,0.5],[1,0.5]];portConstraint=eastwest;dropTarget=0;rounded=0;shadow=0;strokeWidth=1;" parent="YmGmneDjq6B0QrRL0lID-44" vertex="1">
          <mxGeometry y="78" width="160" height="26" as="geometry" />
        </mxCell>
        <mxCell id="YmGmneDjq6B0QrRL0lID-50" value="" style="shape=partialRectangle;top=0;left=0;bottom=0;fillColor=none;align=left;verticalAlign=top;spacingLeft=4;spacingRight=4;overflow=hidden;rotatable=0;points=[];portConstraint=eastwest;part=1;" parent="YmGmneDjq6B0QrRL0lID-49" connectable="0" vertex="1">
          <mxGeometry width="36" height="26" as="geometry" />
        </mxCell>
        <mxCell id="YmGmneDjq6B0QrRL0lID-51" value="emergency_level" style="shape=partialRectangle;top=0;left=0;right=0;bottom=0;align=left;verticalAlign=top;fillColor=none;spacingLeft=40;spacingRight=4;overflow=hidden;rotatable=0;points=[[0,0.5],[1,0.5]];portConstraint=eastwest;dropTarget=0;rounded=0;shadow=0;strokeWidth=1;" parent="YmGmneDjq6B0QrRL0lID-44" vertex="1">
          <mxGeometry y="104" width="160" height="26" as="geometry" />
        </mxCell>
        <mxCell id="YmGmneDjq6B0QrRL0lID-52" value="" style="shape=partialRectangle;top=0;left=0;bottom=0;fillColor=none;align=left;verticalAlign=top;spacingLeft=4;spacingRight=4;overflow=hidden;rotatable=0;points=[];portConstraint=eastwest;part=1;" parent="YmGmneDjq6B0QrRL0lID-51" connectable="0" vertex="1">
          <mxGeometry width="36" height="26" as="geometry" />
        </mxCell>
        <mxCell id="YmGmneDjq6B0QrRL0lID-53" value="" style="endArrow=none;html=1;rounded=0;" parent="YmGmneDjq6B0QrRL0lID-1" source="YmGmneDjq6B0QrRL0lID-30" target="YmGmneDjq6B0QrRL0lID-44" edge="1">
          <mxGeometry width="50" height="50" relative="1" as="geometry">
            <mxPoint x="30" y="-800" as="sourcePoint" />
            <mxPoint x="220" y="-800" as="targetPoint" />
          </mxGeometry>
        </mxCell>
        <mxCell id="de154DgdPlvXE14SgqoN-6" value="" style="endArrow=none;html=1;rounded=0;" parent="YmGmneDjq6B0QrRL0lID-1" source="YmGmneDjq6B0QrRL0lID-5" target="YmGmneDjq6B0QrRL0lID-16" edge="1">
          <mxGeometry width="50" height="50" relative="1" as="geometry">
            <mxPoint x="-270" y="-762" as="sourcePoint" />
            <mxPoint x="-220" y="-812" as="targetPoint" />
          </mxGeometry>
        </mxCell>
        <mxCell id="de154DgdPlvXE14SgqoN-45" value="" style="endArrow=none;html=1;rounded=0;" parent="YmGmneDjq6B0QrRL0lID-1" source="YmGmneDjq6B0QrRL0lID-16" target="YmGmneDjq6B0QrRL0lID-30" edge="1">
          <mxGeometry width="50" height="50" relative="1" as="geometry">
            <mxPoint x="-340" y="-490" as="sourcePoint" />
            <mxPoint x="-290" y="-540" as="targetPoint" />
          </mxGeometry>
        </mxCell>
      </root>
    </mxGraphModel>
  </diagram>
  <diagram id="c-6qf1AU0VKuH1dALuvI" name="Page-4">
    <mxGraphModel dx="1877" dy="1691" grid="1" gridSize="10" guides="1" tooltips="1" connect="1" arrows="1" fold="1" page="1" pageScale="1" pageWidth="827" pageHeight="1169" math="0" shadow="0">
      <root>
        <mxCell id="0" />
        <mxCell id="1" parent="0" />
        <mxCell id="dlybSaY61SVAYqi3WN6w-3" value="" style="html=1;overflow=block;blockSpacing=1;whiteSpace=wrap;shape=image;fontSize=13;spacing=0;strokeColor=none;rounded=1;absoluteArcSize=1;arcSize=9;strokeWidth=0;image=https://images.lucid.app/images/5ea58639-7e01-46cf-adfd-51e542d8fd54/content;imageAspect=0;lucidId=TkaiELslvp8m;" parent="1" vertex="1">
          <mxGeometry x="-370" y="-330" width="709" height="398" as="geometry" />
        </mxCell>
        <mxCell id="dlybSaY61SVAYqi3WN6w-6" value="Gestion des autorisations" style="rounded=1;whiteSpace=wrap;html=1;fillColor=#99FF99;strokeColor=none;" parent="1" vertex="1">
          <mxGeometry x="-590" y="-120" width="153" height="31" as="geometry" />
        </mxCell>
        <mxCell id="dlybSaY61SVAYqi3WN6w-8" value="Localization" style="rounded=1;whiteSpace=wrap;html=1;fillColor=#99FF99;strokeColor=none;" parent="1" vertex="1">
          <mxGeometry x="180" width="140" height="30" as="geometry" />
        </mxCell>
        <mxCell id="dlybSaY61SVAYqi3WN6w-9" value="Logs automatiques" style="rounded=1;whiteSpace=wrap;html=1;fillColor=#99FF99;strokeColor=none;" parent="1" vertex="1">
          <mxGeometry x="160" y="-182" width="153" height="31" as="geometry" />
        </mxCell>
        <mxCell id="dlybSaY61SVAYqi3WN6w-10" value="Logs personalisés" style="rounded=1;whiteSpace=wrap;html=1;fillColor=#99FF99;strokeColor=none;" parent="1" vertex="1">
          <mxGeometry x="170" y="-130" width="160" height="30" as="geometry" />
        </mxCell>
        <mxCell id="dlybSaY61SVAYqi3WN6w-11" value="Validation automatique" style="rounded=1;whiteSpace=wrap;html=1;fillColor=#99FF99;strokeColor=none;" parent="1" vertex="1">
          <mxGeometry x="100" y="-240" width="153" height="31" as="geometry" />
        </mxCell>
        <mxCell id="dlybSaY61SVAYqi3WN6w-12" value="Gestion des exceptions" style="rounded=1;whiteSpace=wrap;html=1;fillColor=#99FF99;strokeColor=none;" parent="1" vertex="1">
          <mxGeometry x="-50" y="20" width="140" height="30" as="geometry" />
        </mxCell>
        <mxCell id="dlybSaY61SVAYqi3WN6w-13" value="" style="endArrow=classic;html=1;rounded=0;" parent="1" source="dlybSaY61SVAYqi3WN6w-6" target="dlybSaY61SVAYqi3WN6w-3" edge="1">
          <mxGeometry width="50" height="50" relative="1" as="geometry">
            <mxPoint x="-580" y="10" as="sourcePoint" />
            <mxPoint x="-380" y="-110" as="targetPoint" />
          </mxGeometry>
        </mxCell>
      </root>
    </mxGraphModel>
  </diagram>
</mxfile>
